<svg xmlns="http://www.w3.org/2000/svg" width="1365.333" height="533.783" viewBox="0 0 1365.333 533.783">
  <g id="Group_807" data-name="Group 807" transform="translate(0 -58.444)">
    <g id="Group_806" data-name="Group 806" transform="translate(0 58.444)">
      <g id="Group_786" data-name="Group 786" transform="translate(575.573 531.992)">
        <path id="Path_403" data-name="Path 403" d="M862.379,692.77h-150.7a.427.427,0,0,1,0-.853h150.7a.427.427,0,1,1,0,.853Z" transform="translate(-679.89 -691.917)" fill="#231f20"/>
        <path id="Path_404" data-name="Path 404" d="M705.55,692.869h-6.124a.427.427,0,0,1,0-.853h6.124a.427.427,0,1,1,0,.853Z" transform="translate(-678.093 -691.932)" fill="#231f20"/>
        <path id="Path_405" data-name="Path 405" d="M908,692.869H893.435a.427.427,0,1,1,0-.853H908a.427.427,0,0,1,0,.853Z" transform="translate(-706.548 -691.932)" fill="#231f20"/>
        <path id="Path_406" data-name="Path 406" d="M690.927,692.77h-16a.427.427,0,0,1,0-.853h16a.427.427,0,1,1,0,.853Z" transform="translate(-674.5 -691.917)" fill="#231f20"/>
      </g>
      <g id="Group_791" data-name="Group 791" transform="translate(576.114 221.84)">
        <g id="Group_787" data-name="Group 787" transform="translate(43.12)">
          <path id="Path_407" data-name="Path 407" d="M745.825,400.926l-20.16,34.135,17.387,17.705L753.5,436.109l4.062,59.537,51.981,2.563,3.477-56.67,5.12,8.667,15.086-10.256-23.619-39.877-20.427-5.88-7.4,4.646-9.724-4.646Z" transform="translate(-725.665 -338.099)" fill="#29abe2"/>
          <path id="Path_408" data-name="Path 408" d="M761.606,510.723,757.122,633.7l-4.415,1.067.284,10.589,22.613,4.1.853-9.288-3.84-2.289,10.877-91.008,5.337-.64,15.162,91.648-4.282,1.152,1.92,11.378,22.569-4.124-1.022-10.1h-4.21l-5.6-124.2Z" transform="translate(-729.631 -355.19)" fill="#c7b299" style="mix-blend-mode: multiply;isolation: isolate"/>
          <path id="Path_409" data-name="Path 409" d="M747.289,673.417l-18.916,8.462,1.138,7.751h35.982l-1.138-7.68-8.96-1.031Z" transform="translate(-726.062 -379.052)" fill="#b3b3b3"/>
          <path id="Path_410" data-name="Path 410" d="M808.653,682.242l-1.28,7.68h39.111V683.89l-17-8.484-7.04,5.556Z" transform="translate(-737.649 -379.344)" fill="#b3b3b3"/>
          <path id="Path_411" data-name="Path 411" d="M772.464,361.94c-2.809.767-7.256-9.136-6.083-20.936s14.589-12.547,16.788-12.547,16.984,1.862,18.946,13.067-1.493,16.693-1.493,16.693c-2.133,1.813-3.413-13.547-3.2-16.107,0,0-8.665.533-14.252-2.347A56.5,56.5,0,0,1,773,342.626S775.241,361.182,772.464,361.94Z" transform="translate(-731.608 -328.458)" fill="#736357"/>
        </g>
        <g id="Group_790" data-name="Group 790" transform="translate(0 2.139)">
          <path id="Path_412" data-name="Path 412" d="M802.615,640.184a.427.427,0,0,1-.421-.356L786.272,544.82l-4.326-.485L771.751,639.8a.426.426,0,0,1-.531.368l-15.36-3.982a.426.426,0,0,1-.32-.427l3.982-127.431a.428.428,0,0,1,.143-.3.415.415,0,0,1,.317-.108l52.053,3.982a.427.427,0,0,1,.393.407l5.405,125.156a.427.427,0,0,1-.362.44l-14.791,2.276A.442.442,0,0,1,802.615,640.184Zm-21.048-96.747.048,0,5.072.568a.427.427,0,0,1,.374.353l15.906,94.91,14-2.154-5.372-124.4L760.361,508.8,756.4,635.447l14.551,3.773,10.188-95.4a.426.426,0,0,1,.424-.381Z" transform="translate(-686.927 -356.917)" fill="#231f20"/>
          <path id="Path_413" data-name="Path 413" d="M773.084,672.326a.429.429,0,0,1-.074-.007l-21.617-3.84a.426.426,0,0,1-.352-.42V657.677a.427.427,0,0,1,.427-.427h3.84a.427.427,0,1,1,0,.853h-3.413v9.6l20.811,3.7.778-8.05-2.986-1.3a.427.427,0,1,1,.34-.783l3.271,1.422a.427.427,0,0,1,.255.433l-.853,8.818a.429.429,0,0,1-.167.3A.423.423,0,0,1,773.084,672.326Z" transform="translate(-686.267 -378.82)" fill="#231f20"/>
          <path id="Path_414" data-name="Path 414" d="M808.339,675.034a.421.421,0,0,1-.242-.076.427.427,0,0,1-.179-.288l-1.707-11.377a.426.426,0,0,1,.272-.463l3.413-1.28a.427.427,0,1,1,.3.8l-3.09,1.159,1.588,10.587,21.216-4.518-1.216-9.49-3.856.013h0a.427.427,0,0,1,0-.853l4.232-.015h0a.428.428,0,0,1,.424.373l1.314,10.254a.428.428,0,0,1-.335.472l-22.045,4.693A.441.441,0,0,1,808.339,675.034Z" transform="translate(-694.358 -379.11)" fill="#231f20"/>
          <path id="Path_415" data-name="Path 415" d="M767.961,690.13H731.82a.428.428,0,0,1-.423-.372l-.853-6.542a.426.426,0,0,1,.254-.447l20.48-8.818a.429.429,0,0,1,.407.038l8.138,5.472,7.672-.08h0a.427.427,0,0,1,.427.408l.439,9.776a.414.414,0,0,1,.023.138A.427.427,0,0,1,767.961,690.13Zm-35.767-.853h35.3l-.406-9.038-7.392.078a.44.44,0,0,1-.242-.073l-8.056-5.417-19.971,8.6Z" transform="translate(-683.26 -381.264)" fill="#231f20"/>
          <path id="Path_416" data-name="Path 416" d="M843.815,690.4H809.967a.427.427,0,0,1-.424-.474l.995-8.96a.428.428,0,0,1,.371-.375l10-1.268,5.466-3.5a.429.429,0,0,1,.426-.02l18.062,9.316a.426.426,0,0,1,.224.459l-.853,4.48A.427.427,0,0,1,843.815,690.4Zm-33.371-.853h33.018l.728-3.82-17.56-9.057-5.339,3.424a.434.434,0,0,1-.177.064l-9.765,1.237Z" transform="translate(-694.847 -381.533)" fill="#231f20"/>
          <path id="Path_417" data-name="Path 417" d="M757.359,675.648l-.039,0a.426.426,0,0,1-.387-.463l.382-4.251a.432.432,0,0,1,.463-.387.426.426,0,0,1,.387.463l-.382,4.251A.426.426,0,0,1,757.359,675.648Z" transform="translate(-687.131 -380.769)" fill="#231f20"/>
          <path id="Path_418" data-name="Path 418" d="M771.227,680.122l-.034,0a.426.426,0,0,1-.392-.459l.489-6.123a.423.423,0,0,1,.46-.391.427.427,0,0,1,.392.459l-.49,6.123A.426.426,0,0,1,771.227,680.122Z" transform="translate(-689.165 -381.151)" fill="#231f20"/>
          <path id="Path_419" data-name="Path 419" d="M814.743,681.036a.426.426,0,0,1-.422-.368l-.61-4.434a.427.427,0,0,1,.846-.116l.609,4.433a.425.425,0,0,1-.364.48A.477.477,0,0,1,814.743,681.036Z" transform="translate(-695.458 -381.533)" fill="#231f20"/>
          <path id="Path_420" data-name="Path 420" d="M827.453,677.247a.427.427,0,0,1-.425-.394l-.274-3.592a.427.427,0,0,1,.393-.458.421.421,0,0,1,.457.393l.274,3.592a.428.428,0,0,1-.393.458Z" transform="translate(-697.371 -381.1)" fill="#231f20"/>
          <path id="Path_421" data-name="Path 421" d="M820.328,501.378H820.3a.427.427,0,0,1-.4-.454L823.592,446,816.9,432.358l-4.279-1.154a.427.427,0,1,1,.222-.824l4.466,1.2a.429.429,0,0,1,.272.224l6.827,13.914a.43.43,0,0,1,.043.217l-3.7,55.039A.428.428,0,0,1,820.328,501.378Z" transform="translate(-695.253 -345.543)" fill="#231f20"/>
          <path id="Path_422" data-name="Path 422" d="M759.948,497.6a.427.427,0,0,1-.425-.393l-3.983-50.2a.435.435,0,0,1,.058-.251l8.129-13.76a.427.427,0,0,1,.263-.2l3.982-1.008a.427.427,0,0,1,.209.828l-3.81.964-7.969,13.49,3.971,50.071a.426.426,0,0,1-.392.458Z" transform="translate(-686.927 -345.75)" fill="#231f20"/>
          <path id="Path_423" data-name="Path 423" d="M741.272,453.525a.428.428,0,0,1-.282-.107l-15.68-13.867a.428.428,0,0,1-.08-.545l22.507-36.267a.428.428,0,0,1,.263-.189l25.387-6.08a.423.423,0,0,1,.332.057l7.674,4.978,8.627-4.989a.428.428,0,0,1,.337-.038L815,403.943a.422.422,0,0,1,.242.188l19.7,32.747a.428.428,0,0,1-.119.568l-15.187,10.769a.43.43,0,0,1-.321.072.424.424,0,0,1-.277-.178L811.58,437.27l-.231,3.044a.427.427,0,1,1-.851-.065l.322-4.25a.427.427,0,0,1,.777-.209l7.892,11.479L834,436.979l-19.409-32.266-24.306-7.366-8.693,5.028a.427.427,0,0,1-.445-.012l-7.74-5.02-25.038,6L726.144,439.15l15.029,13.292,9.975-16.313a.428.428,0,0,1,.788.165l.605,4.416a.427.427,0,0,1-.847.116l-.442-3.23-9.615,15.725a.425.425,0,0,1-.3.2A.394.394,0,0,1,741.272,453.525Z" transform="translate(-682.472 -340.57)" fill="#231f20"/>
          <path id="Path_424" data-name="Path 424" d="M770.488,435.588a.427.427,0,0,1-.425-.384l-3.513-35.067a.427.427,0,1,1,.849-.085l3.465,34.587,6.737-1.518-3.253-34.854a.427.427,0,1,1,.85-.079l3.288,35.228a.427.427,0,0,1-.331.456l-7.573,1.707A.435.435,0,0,1,770.488,435.588Z" transform="translate(-688.541 -340.767)" fill="#231f20"/>
          <path id="Path_425" data-name="Path 425" d="M810.617,434.25a.386.386,0,0,1-.07-.006l-6.4-1.067a.426.426,0,0,1-.356-.449l2.26-34.2a.433.433,0,0,1,.454-.4.426.426,0,0,1,.4.454L804.668,432.4l5.575.929,3.631-32.447a.427.427,0,0,1,.848.095l-3.681,32.9a.427.427,0,0,1-.424.379Z" transform="translate(-694.004 -340.816)" fill="#231f20"/>
          <path id="Path_426" data-name="Path 426" d="M781.717,395.743a.433.433,0,0,1-.073-.006.428.428,0,0,1-.347-.494l1.6-9.126a.427.427,0,1,1,.841.148l-1.6,9.125A.428.428,0,0,1,781.717,395.743Z" transform="translate(-690.703 -339.002)" fill="#231f20"/>
          <path id="Path_427" data-name="Path 427" d="M800.957,395.746a.426.426,0,0,1-.414-.324l-2.24-9.105a.426.426,0,1,1,.828-.2l2.24,9.1a.426.426,0,0,1-.312.516A.39.39,0,0,1,800.957,395.746Z" transform="translate(-693.197 -339.005)" fill="#231f20"/>
          <path id="Path_428" data-name="Path 428" d="M725.592,450.147a.427.427,0,0,1-.366-.646l1.188-1.98a.426.426,0,1,1,.731.439l-1.187,1.981A.427.427,0,0,1,725.592,450.147Z" transform="translate(-682.472 -348.029)" fill="#231f20"/>
          <path id="Path_429" data-name="Path 429" d="M788.783,381.482c-4.419,0-10.218-.732-11.315-3.507-1.819-4.6-2.764-30-2.8-31.075a.427.427,0,0,1,.411-.442.439.439,0,0,1,.442.411c.009.263.977,26.325,2.743,30.792.914,2.313,7.194,3.224,12.643,2.908,4.79-.278,7.537-1.328,7.775-2.221.812-3.044,2.572-25.693,1.8-31.406a.428.428,0,0,1,.366-.48.424.424,0,0,1,.48.366c.776,5.773-1,28.663-1.824,31.741-.592,2.221-6.694,2.745-8.549,2.853C790.3,381.459,789.561,381.482,788.783,381.482Z" transform="translate(-689.732 -333.237)" fill="#231f20"/>
          <path id="Path_430" data-name="Path 430" d="M772.967,346.376a.427.427,0,0,1-.067-.848,45.266,45.266,0,0,0,14.353-5.384.426.426,0,1,1,.44.73,46.191,46.191,0,0,1-14.66,5.5A.445.445,0,0,1,772.967,346.376Z" transform="translate(-689.42 -332.302)" fill="#231f20"/>
          <path id="Path_431" data-name="Path 431" d="M803.826,346.757c-7.455,0-18.813-3.226-18.929-3.259a.427.427,0,1,1,.236-.82c.114.032,11.359,3.226,18.689,3.226l.346,0a.436.436,0,0,1,.433.421.427.427,0,0,1-.421.433Z" transform="translate(-691.187 -332.68)" fill="#231f20"/>
          <path id="Path_432" data-name="Path 432" d="M799.728,362.735a.421.421,0,0,1-.318-.143.425.425,0,0,1,.035-.6c4.125-3.668,5.658-9.414,4.82-18.083-.733-7.6-10.6-11.895-19.509-12.082-5.931-.126-13.184,1.738-13.974,7.406-2.555,18.343,2.454,20.646,4.593,21.629a.427.427,0,0,1-.357.776c-3.819-1.756-7.409-5.805-5.081-22.523.712-5.122,6.515-8.324,14.837-8.142,9.278.2,19.56,4.767,20.341,12.853.865,8.963-.757,14.938-5.1,18.8A.423.423,0,0,1,799.728,362.735Z" transform="translate(-688.93 -330.964)" fill="#231f20"/>
          <path id="Path_433" data-name="Path 433" d="M795.71,350.378h-.016c-8.445-.317-17.423-1.061-17.513-1.068a.426.426,0,0,1-.389-.46.419.419,0,0,1,.46-.39c.09.007,9.049.749,17.475,1.065a.427.427,0,0,1-.016.853Z" transform="translate(-690.19 -333.53)" fill="#231f20"/>
          <path id="Path_434" data-name="Path 434" d="M786.782,366.576a.426.426,0,0,1-.427-.427V349.507a.427.427,0,0,1,.853,0v16.179l5.99-.5a.433.433,0,0,1,.461.391.428.428,0,0,1-.391.461l-6.451.533Z" transform="translate(-691.446 -333.621)" fill="#231f20"/>
          <path id="Path_435" data-name="Path 435" d="M793.974,377.379a.429.429,0,0,1-.1-.013c-2.868-.716-7.743,0-7.793.009a.427.427,0,0,1-.126-.845c.207-.031,5.092-.75,8.125.009a.427.427,0,0,1-.1.841Z" transform="translate(-691.334 -337.598)" fill="#231f20"/>
          <path id="Path_436" data-name="Path 436" d="M803.763,474.487h-.019l-26.667-1.173a.428.428,0,0,1-.405-.375c-.028-.238-2.851-23.765-2.879-23.982a.427.427,0,0,1,.437-.481l31.467.99a.426.426,0,0,1,.412.46l-1.92,24.17A.427.427,0,0,1,803.763,474.487Zm-26.286-2.01,25.894,1.139,1.852-23.313-30.524-.961C774.864,450.7,775.436,455.468,777.477,472.477Z" transform="translate(-689.604 -348.199)" fill="#231f20"/>
          <path id="Path_437" data-name="Path 437" d="M759.788,531.956a.421.421,0,0,1-.218-.06.427.427,0,0,1-.148-.585c8.949-15.068,9.67-22.128,9.676-22.2a.427.427,0,0,1,.851.074c-.026.289-.719,7.283-9.794,22.559A.424.424,0,0,1,759.788,531.956Z" transform="translate(-687.487 -357.036)" fill="#231f20"/>
          <path id="Path_438" data-name="Path 438" d="M820.778,532.394a.422.422,0,0,1-.314-.138,48.919,48.919,0,0,1-10.693-20.029.426.426,0,1,1,.833-.183,48.012,48.012,0,0,0,10.489,19.635.427.427,0,0,1-.315.715Z" transform="translate(-694.879 -357.473)" fill="#231f20"/>
          <path id="Path_439" data-name="Path 439" d="M785.272,546.02a.426.426,0,0,1-.319-.143l-2.24-2.525a.434.434,0,0,1-.107-.25l-1.8-22.934a.427.427,0,0,1,.851-.067l1.791,22.792,2.145,2.418a.427.427,0,0,1-.319.71Z" transform="translate(-690.632 -358.647)" fill="#231f20"/>
          <path id="Path_440" data-name="Path 440" d="M794.519,551.061h-2.607a.427.427,0,1,1,0-.853h2.607a.427.427,0,0,1,0,.853Z" transform="translate(-692.199 -363.12)" fill="#231f20"/>
          <path id="Path_441" data-name="Path 441" d="M813.044,505.805h-.018l-52.815-2.13a.426.426,0,0,1-.409-.444.42.42,0,0,1,.443-.41l52.814,2.13a.427.427,0,0,1-.016.853Z" transform="translate(-687.552 -356.17)" fill="#231f20"/>
          <path id="Path_442" data-name="Path 442" d="M731.625,689.99a.427.427,0,0,1-.011-.853l36.274-.93a.435.435,0,0,1,.437.416.426.426,0,0,1-.416.438l-36.273.93Z" transform="translate(-683.357 -383.36)" fill="#231f20"/>
          <path id="Path_443" data-name="Path 443" d="M844.31,689.916h-.018l-33.875-1.358a.428.428,0,0,1-.41-.444.437.437,0,0,1,.444-.41l33.876,1.358a.427.427,0,0,1-.017.853Z" transform="translate(-694.915 -383.286)" fill="#231f20"/>
          <path id="Path_444" data-name="Path 444" d="M754.027,679.613a.424.424,0,0,1-.338-.166l-2.56-3.337a.426.426,0,1,1,.676-.52l2.56,3.336a.426.426,0,0,1-.078.6A.417.417,0,0,1,754.027,679.613Z" transform="translate(-686.267 -381.485)" fill="#231f20"/>
          <path id="Path_445" data-name="Path 445" d="M749.307,680.743a.425.425,0,0,1-.31-.133l-2.381-2.511a.426.426,0,1,1,.619-.587l2.382,2.512a.426.426,0,0,1-.31.719Z" transform="translate(-685.601 -381.772)" fill="#231f20"/>
          <path id="Path_446" data-name="Path 446" d="M829.092,680.743a.426.426,0,0,1-.273-.753l3.014-2.512a.427.427,0,0,1,.547.655l-3.015,2.511A.424.424,0,0,1,829.092,680.743Z" transform="translate(-697.652 -381.772)" fill="#231f20"/>
          <path id="Path_447" data-name="Path 447" d="M833.217,682.213a.427.427,0,0,1-.254-.769l2.728-2.027a.426.426,0,1,1,.509.684l-2.728,2.027A.423.423,0,0,1,833.217,682.213Z" transform="translate(-698.257 -382.058)" fill="#231f20"/>
          <path id="Path_448" data-name="Path 448" d="M740.732,688.459a.427.427,0,0,1-.407-.3l-2.091-6.66a.427.427,0,0,1,.814-.255l2.092,6.661a.426.426,0,0,1-.279.534A.42.42,0,0,1,740.732,688.459Z" transform="translate(-684.386 -382.295)" fill="#231f20"/>
          <path id="Path_449" data-name="Path 449" d="M840.967,688.749a.427.427,0,0,1-.4-.589l2.045-4.977a.426.426,0,1,1,.789.323l-2.044,4.978A.428.428,0,0,1,840.967,688.749Z" transform="translate(-699.393 -382.584)" fill="#231f20"/>
          <path id="Path_450" data-name="Path 450" d="M854.185,449.066a.425.425,0,0,1-.357-.193l-2.353-3.59a.426.426,0,0,1,.713-.468l2.353,3.59a.427.427,0,0,1-.123.59A.421.421,0,0,1,854.185,449.066Z" transform="translate(-700.987 -347.634)" fill="#231f20"/>
          <g id="Group_788" data-name="Group 788" transform="translate(0 74.981)">
            <path id="Path_451" data-name="Path 451" d="M721.9,448.593a.425.425,0,0,1-.258-.087l-23.28-17.6a.429.429,0,0,1-.107-.121l-5.667-9.444-6.849-1.565-1.546,9.083H688.2l.5-5.28a.419.419,0,0,1,.465-.385.427.427,0,0,1,.385.465l-.533,5.667a.427.427,0,0,1-.425.387h-4.907a.425.425,0,0,1-.42-.5l1.707-10.027a.428.428,0,0,1,.183-.283.421.421,0,0,1,.333-.061l7.467,1.707a.426.426,0,0,1,.271.2l5.717,9.529,23.214,17.551a.426.426,0,0,1-.258.766Z" transform="translate(-676.326 -418.832)" fill="#231f20"/>
            <path id="Path_452" data-name="Path 452" d="M692.168,426.658h-2.284a.427.427,0,0,1,0-.853h2.284a.427.427,0,1,1,0,.853Z" transform="translate(-677.235 -419.855)" fill="#231f20"/>
            <path id="Path_453" data-name="Path 453" d="M722.414,470.369a.427.427,0,0,1-.3-.128l-31.663-32.309-11.627,1.606a.425.425,0,0,1-.459-.276l-3.2-8.747a.418.418,0,0,1-.025-.177l.64-8.96a.427.427,0,0,1,.393-.4l7.773-.587a.427.427,0,1,1,.064.851l-7.406.56-.607,8.5,3.05,8.338,11.5-1.589a.422.422,0,0,1,.363.124l31.464,32.106,10.253-13.79a.427.427,0,0,1,.685.509L722.756,470.2a.426.426,0,0,1-.313.171Z" transform="translate(-675.134 -419.061)" fill="#231f20"/>
            <path id="Path_454" data-name="Path 454" d="M675.973,426.578a.427.427,0,0,1-.026-.852l7.355-.468a.427.427,0,0,1,.055.852l-7.355.468Z" transform="translate(-675.194 -419.774)" fill="#231f20"/>
            <path id="Path_455" data-name="Path 455" d="M675.561,432.289a.427.427,0,0,1-.039-.852l9.28-.853a.427.427,0,1,1,.078.85l-9.28.853A.3.3,0,0,1,675.561,432.289Z" transform="translate(-675.134 -420.556)" fill="#231f20"/>
            <path id="Path_456" data-name="Path 456" d="M677.425,436.638a.427.427,0,0,1-.07-.848l9.053-1.5-.749-3.182a.427.427,0,0,1,.831-.2l.853,3.627a.427.427,0,0,1-.346.519l-9.5,1.575A.4.4,0,0,1,677.425,436.638Z" transform="translate(-675.407 -420.556)" fill="#231f20"/>
            <path id="Path_457" data-name="Path 457" d="M687.792,440.684a.426.426,0,0,1-.41-.306l-1.357-4.646a.427.427,0,0,1,.819-.24l1.357,4.646a.427.427,0,0,1-.29.529A.417.417,0,0,1,687.792,440.684Z" transform="translate(-676.729 -421.231)" fill="#231f20"/>
          </g>
          <g id="Group_789" data-name="Group 789" transform="translate(137.699 79.168)">
            <path id="Path_458" data-name="Path 458" d="M849.633,447.642a.427.427,0,0,1-.159-.823l31.8-12.729,5.063-8.437a.423.423,0,0,1,.27-.2l7.467-1.707a.425.425,0,0,1,.332.061.434.434,0,0,1,.184.283l1.707,10.027a.428.428,0,0,1-.422.5h-4.907a.428.428,0,0,1-.425-.387l-.533-5.667a.427.427,0,0,1,.85-.08l.5,5.28h4.012l-1.546-9.083-6.849,1.565-5.043,8.4a.43.43,0,0,1-.208.177l-31.932,12.782A.434.434,0,0,1,849.633,447.642Z" transform="translate(-838.364 -423.739)" fill="#231f20"/>
            <path id="Path_459" data-name="Path 459" d="M897.23,431.564h-2.283a.427.427,0,1,1,0-.853h2.283a.427.427,0,0,1,0,.853Z" transform="translate(-845.01 -424.762)" fill="#231f20"/>
            <path id="Path_460" data-name="Path 460" d="M847.511,466.186a.429.429,0,0,1-.345-.175l-10.585-14.524a.427.427,0,0,1,.69-.5l10.353,14.207,38.059-23.17a.413.413,0,0,1,.28-.058l11.5,1.589,3.051-8.338-.607-8.5-7.407-.56a.427.427,0,0,1-.393-.457.418.418,0,0,1,.458-.393l7.774.588a.425.425,0,0,1,.393.4l.64,8.96a.416.416,0,0,1-.025.177l-3.2,8.747a.42.42,0,0,1-.459.276L886,442.829l-38.264,23.294A.42.42,0,0,1,847.511,466.186Z" transform="translate(-836.5 -423.968)" fill="#231f20"/>
            <path id="Path_461" data-name="Path 461" d="M910.271,431.484h-.028l-7.355-.468a.427.427,0,0,1-.4-.453.42.42,0,0,1,.453-.4l7.356.469a.427.427,0,0,1-.027.852Z" transform="translate(-846.179 -424.681)" fill="#231f20"/>
            <path id="Path_462" data-name="Path 462" d="M910.354,437.2a.3.3,0,0,1-.039,0l-9.28-.853a.427.427,0,1,1,.078-.85l9.28.853a.427.427,0,0,1-.038.852Z" transform="translate(-845.908 -425.462)" fill="#231f20"/>
            <path id="Path_463" data-name="Path 463" d="M908.451,441.544a.4.4,0,0,1-.071-.005l-9.5-1.575a.425.425,0,0,1-.345-.519l.853-3.627a.427.427,0,1,1,.83.2l-.748,3.182,9.052,1.5a.427.427,0,0,1-.069.847Z" transform="translate(-845.597 -425.463)" fill="#231f20"/>
            <path id="Path_464" data-name="Path 464" d="M899.484,445.59a.426.426,0,0,1-.41-.546l1.357-4.646a.426.426,0,1,1,.818.239l-1.357,4.646A.425.425,0,0,1,899.484,445.59Z" transform="translate(-845.675 -426.137)" fill="#231f20"/>
          </g>
          <path id="Path_465" data-name="Path 465" d="M781.508,356c-.715,0-1.277-.749-1.277-1.707s.561-1.707,1.277-1.707,1.277.749,1.277,1.707S782.224,356,781.508,356Zm0-2.56c-.168,0-.423.34-.423.853s.255.853.423.853.423-.341.423-.853S781.677,353.436,781.508,353.436Z" transform="translate(-690.548 -334.135)" fill="#231f20"/>
          <path id="Path_466" data-name="Path 466" d="M793.008,356c-.715,0-1.277-.749-1.277-1.707s.561-1.707,1.277-1.707,1.277.749,1.277,1.707S793.724,356,793.008,356Zm0-2.56c-.168,0-.423.34-.423.853s.255.853.423.853.423-.341.423-.853S793.177,353.436,793.008,353.436Z" transform="translate(-692.235 -334.135)" fill="#231f20"/>
          <path id="Path_467" data-name="Path 467" d="M779.153,431.077a.427.427,0,0,1-.016-.853l21.885-.828a.427.427,0,1,1,.032.852l-21.885.828Z" transform="translate(-690.328 -345.401)" fill="#231f20"/>
          <path id="Path_468" data-name="Path 468" d="M774.961,437.684a1.655,1.655,0,1,1,1.919-1.633A1.8,1.8,0,0,1,774.961,437.684Zm0-2.413c-.577,0-1.065.357-1.065.78s.488.78,1.065.78,1.066-.358,1.066-.78S775.539,435.27,774.961,435.27Z" transform="translate(-689.494 -346.137)" fill="#231f20"/>
          <path id="Path_469" data-name="Path 469" d="M808.5,437.038a1.342,1.342,0,1,1,1.632-1.311A1.481,1.481,0,0,1,808.5,437.038Zm0-1.768c-.445,0-.778.242-.778.457s.333.457.778.457.778-.242.778-.457S808.95,435.27,808.5,435.27Z" transform="translate(-694.456 -346.137)" fill="#231f20"/>
        </g>
      </g>
      <g id="Group_793" data-name="Group 793" transform="translate(0 268.453)">
        <path id="Path_470" data-name="Path 470" d="M31.546,656.988q-15.47,0-31.546-.084v-2.56c165.228.863,310.329-4.916,392.486-18.2,82.052-13.266,133.628-34.4,162.312-66.5,25.966-29.065,34.419-68.477,27.4-127.79l2.543-.3c7.107,60.105-1.54,100.136-28.039,129.8-29.1,32.567-81.149,53.961-163.812,67.325C315.934,651.115,180.191,656.988,31.546,656.988Z" transform="translate(0 -391.659)" fill="#231f20"/>
        <g id="Group_792" data-name="Group 792" transform="translate(563.282)">
          <path id="Path_471" data-name="Path 471" d="M669.215,396.275a14.263,14.263,0,0,0-7.968-6.653l.306-.8a15.181,15.181,0,0,1,8.387,7Z" transform="translate(-660.265 -383.925)" fill="#ed1c24"/>
          <path id="Path_472" data-name="Path 472" d="M670.247,396.576A56.123,56.123,0,0,0,660.1,383.723l.564-.64a57.081,57.081,0,0,1,10.334,13.079Z" transform="translate(-660.096 -383.083)" fill="#f7941e"/>
          <path id="Path_473" data-name="Path 473" d="M671.484,397.532c-.177-.317-4.332-7.807-5.541-12.57l.828-.21c1.181,4.655,5.416,12.289,5.459,12.366Z" transform="translate(-660.954 -383.328)" fill="#00aeef"/>
        </g>
        <path id="Path_474" data-name="Path 474" d="M677.92,417.272a50.494,50.494,0,0,0-9.679-22.581l2.022-1.569a52.458,52.458,0,0,1,10.2,23.818Z" transform="translate(-98.009 -384.555)" fill="#231f20"/>
      </g>
      <g id="Group_795" data-name="Group 795" transform="translate(767.501 268.582)">
        <path id="Path_475" data-name="Path 475" d="M1497.248,657.689c-188.063-.032-288.658-6.689-380.708-20.955-95.569-14.811-154.988-38.485-186.991-74.5-25.324-28.5-34.335-65.327-28.355-115.9l2.541.3c-5.887,49.792,2.923,85.984,27.727,113.9,31.586,35.546,90.521,58.957,185.47,73.672,91.916,14.246,192.387,20.894,380.315,20.925Z" transform="translate(-899.415 -392.489)" fill="#231f20"/>
        <g id="Group_794" data-name="Group 794" transform="translate(11.38)">
          <path id="Path_476" data-name="Path 476" d="M915.352,396.426l-.725-.451a15.184,15.184,0,0,1,8.386-7l.306.8A14.254,14.254,0,0,0,915.352,396.426Z" transform="translate(-913.026 -384.076)" fill="#ed1c24"/>
          <path id="Path_477" data-name="Path 477" d="M913.94,396.727l-.747-.414a57.088,57.088,0,0,1,10.336-13.079l.563.64A56.106,56.106,0,0,0,913.94,396.727Z" transform="translate(-912.816 -383.234)" fill="#f7941e"/>
          <path id="Path_478" data-name="Path 478" d="M913.5,397.683l-.745-.415c.043-.077,4.278-7.711,5.459-12.366l.827.21C917.828,389.876,913.673,397.368,913.5,397.683Z" transform="translate(-912.751 -383.479)" fill="#00aeef"/>
        </g>
        <path id="Path_479" data-name="Path 479" d="M906.593,421.413l-2.538-.332c.829-6.354,3.93-20.343,9.724-27.808l2.022,1.569C910.346,401.873,907.392,415.3,906.593,421.413Z" transform="translate(-900.096 -384.706)" fill="#231f20"/>
      </g>
      <g id="Group_796" data-name="Group 796" transform="translate(556.589 243.97)">
        <rect id="Rectangle_255" data-name="Rectangle 255" width="1.707" height="10.217" transform="translate(0 1.207) rotate(-45)" fill="#231f20"/>
        <rect id="Rectangle_256" data-name="Rectangle 256" width="10.217" height="1.707" transform="translate(0 7.225) rotate(-45)" fill="#231f20"/>
      </g>
      <g id="Group_797" data-name="Group 797" transform="translate(803.754 314.158)">
        <rect id="Rectangle_257" data-name="Rectangle 257" width="1.706" height="10.217" transform="matrix(0.707, -0.707, 0.707, 0.707, 0, 1.207)" fill="#231f20"/>
        <rect id="Rectangle_258" data-name="Rectangle 258" width="10.217" height="1.706" transform="translate(0 7.225) rotate(-45.002)" fill="#231f20"/>
      </g>
      <g id="Group_798" data-name="Group 798" transform="translate(536.015 300.613)">
        <rect id="Rectangle_259" data-name="Rectangle 259" width="1.706" height="6.666" transform="matrix(0.707, -0.707, 0.707, 0.707, 0, 1.207)" fill="#231f20"/>
        <rect id="Rectangle_260" data-name="Rectangle 260" width="6.666" height="1.706" transform="translate(0 4.713) rotate(-44.998)" fill="#231f20"/>
      </g>
      <g id="Group_799" data-name="Group 799" transform="translate(809.488 241.173)">
        <rect id="Rectangle_261" data-name="Rectangle 261" width="1.706" height="6.666" transform="translate(0 1.207) rotate(-45)" fill="#231f20"/>
        <rect id="Rectangle_262" data-name="Rectangle 262" width="6.666" height="1.706" transform="translate(0 4.713) rotate(-45)" fill="#231f20"/>
      </g>
      <path id="Path_480" data-name="Path 480" d="M876.215,422.122a3.413,3.413,0,1,1,3.413-3.413A3.417,3.417,0,0,1,876.215,422.122Zm0-5.12a1.707,1.707,0,1,0,1.707,1.707A1.708,1.708,0,0,0,876.215,417Z" transform="translate(-128.011 -119.354)" fill="#231f20"/>
      <path id="Path_481" data-name="Path 481" d="M703.136,394.805a2.987,2.987,0,1,1,2.987-2.987A2.991,2.991,0,0,1,703.136,394.805Zm0-4.267a1.28,1.28,0,1,0,1.28,1.28A1.281,1.281,0,0,0,703.136,390.539Z" transform="translate(-102.689 -115.473)" fill="#231f20"/>
      <g id="Group_800" data-name="Group 800" transform="translate(725.579 260.773)">
        <rect id="Rectangle_263" data-name="Rectangle 263" width="3.627" height="1.707" transform="translate(0 0)" fill="#231f20"/>
        <rect id="Rectangle_264" data-name="Rectangle 264" width="5.653" height="1.707" transform="translate(1.813 3.413)" fill="#231f20"/>
      </g>
      <g id="Group_801" data-name="Group 801" transform="translate(599.527 234.853)">
        <rect id="Rectangle_265" data-name="Rectangle 265" width="9.29" height="1.707" fill="#231f20"/>
        <rect id="Rectangle_266" data-name="Rectangle 266" width="2.709" height="1.707" transform="translate(14.068)" fill="#231f20"/>
        <rect id="Rectangle_267" data-name="Rectangle 267" width="17.797" height="1.707" transform="translate(4.645 3.84)" fill="#231f20"/>
      </g>
      <g id="Group_802" data-name="Group 802" transform="translate(758.461 219.387)">
        <rect id="Rectangle_268" data-name="Rectangle 268" width="11.52" height="1.707" transform="translate(0 3.2)" fill="#231f20"/>
        <rect id="Rectangle_269" data-name="Rectangle 269" width="7.68" height="1.707" transform="translate(7.467)" fill="#231f20"/>
      </g>
      <path id="Path_482" data-name="Path 482" d="M801.317,318.571a.427.427,0,0,1-.392-.6l24.231-55.782-220.575-8.435a.427.427,0,0,1-.406-.368l-22.9-164.958a.427.427,0,0,1,.4-.485L920.053,68.492a.423.423,0,0,1,.327.125.428.428,0,0,1,.124.327L908.48,264.355a.427.427,0,0,1-.426.4h-.006l-59.115-.842L801.64,318.424A.429.429,0,0,1,801.317,318.571ZM604.972,252.918l220.842,8.446a.427.427,0,0,1,.375.6l-23.373,53.806,45.6-52.564a.374.374,0,0,1,.328-.147l58.906.84L919.622,69.371l-337.44,19.4Z" transform="translate(-85.253 -68.489)" fill="#231f20"/>
      <g id="Group_805" data-name="Group 805" transform="translate(527.675 34.097)">
        <g id="Group_803" data-name="Group 803">
          <path id="Path_483" data-name="Path 483" d="M665.708,233.927l-2.12-35.189-43.19,2.62-2.03-20.3,40.149-72.136,30.495,1.948,2.028,67.585,12.735.488-2.456,19.633-14.04.246,1.269,29.167Zm2.871-54.986-2.132-47.519c-3.314,7.442-23.2,46.6-23.2,46.6v.355Z" transform="translate(-618.369 -108.516)" fill="#f1616f"/>
          <path id="Path_484" data-name="Path 484" d="M804.5,167.853c-1.882,35.564-9.821,66.938-38.975,60.065-23.248-5.48-34.839-24.048-37.216-56.564-2.678-36.639,11.841-66.772,38-62.5C793.662,113.312,806.563,128.962,804.5,167.853Zm-53.177.708c-.158,26.4,5.524,38.98,14.833,38.98s12.1-13.209,14.359-39.335c2.039-23.595-2.543-38.682-12.169-38.682C759.514,129.524,751.169,141.806,751.327,168.561Z" transform="translate(-634.448 -108.446)" fill="#f1616f"/>
          <path id="Path_485" data-name="Path 485" d="M873.449,226.012l1.075-28.486L837.3,198.549,828,181.008l33.831-66.383,36.875-5.879-2.462,67.507,15.92-1.568,3.807,24.109-19.8-.246,2.039,33.237Zm0-47.662s2.767-44.018,3.241-51.459l-26.279,51.1v.355Z" transform="translate(-649.116 -108.49)" fill="#f1616f"/>
        </g>
        <g id="Group_804" data-name="Group 804" transform="translate(5.262 2.067)">
          <path id="Path_486" data-name="Path 486" d="M671.918,237.317l-2.126-35.281-43.173,2.62-2.084-20.844.065-.117,40.28-72.372,31.151,1.991,2.028,67.575,12.8.49L708.3,201.84l-13.973.245,1.265,29.074Zm-1.324-36.184,2.114,35.1,22-5.722-1.273-29.259L707.547,201l2.352-18.8-12.669-.485-2.028-67.6-29.838-1.906-39.953,71.784,1.976,19.761Zm5.037-18.909-26.2-.585v-.874l.047-.091c.2-.391,19.914-39.231,23.186-46.579l.816.155Zm-25.266-1.418,24.372.545L672.7,136.043C668.138,145.762,651.982,177.622,650.366,180.806Z" transform="translate(-624.536 -110.936)"/>
          <path id="Path_487" data-name="Path 487" d="M779.79,232.146a34.009,34.009,0,0,1-7.752-.963c-23.172-5.463-35.1-23.558-37.542-56.947-1.683-23.015,3.437-43.343,13.7-54.38,5.543-5.963,12.232-8.986,19.878-8.986a30.656,30.656,0,0,1,4.925.41c14.535,2.371,24.2,7.7,30.4,16.77,6.5,9.492,9.159,23.451,8.141,42.676C810.142,197.092,805.333,232.146,779.79,232.146ZM768.069,111.722c-7.4,0-13.878,2.932-19.253,8.714-10.1,10.865-15.136,30.954-13.47,53.735,2.41,32.964,14.13,50.815,36.887,56.179a33.128,33.128,0,0,0,7.556.941c18.89,0,28.707-19.261,30.895-60.613,1.953-36.89-9.006-53.856-37.828-58.558A29.837,29.837,0,0,0,768.069,111.722Zm4.7,99.1a9.91,9.91,0,0,1-7.223-3.116c-5.367-5.4-8.146-17.95-8.037-36.294-.1-16.9,3.212-29.594,9.323-35.742a11.47,11.47,0,0,1,8.128-3.719,9.022,9.022,0,0,1,6.835,3.15c5.227,5.7,7.272,18.482,5.758,35.994C785.274,197.439,782.363,210.817,772.768,210.817Zm2.19-78.017a10.637,10.637,0,0,0-7.522,3.467c-5.95,5.985-9.173,18.464-9.075,35.14-.108,18.117,2.585,30.458,7.788,35.692a9.088,9.088,0,0,0,6.618,2.864c8.934,0,11.7-13.116,13.934-38.946,1.471-17.021-.547-29.9-5.537-35.343A8.2,8.2,0,0,0,774.958,132.8Z" transform="translate(-640.617 -110.869)"/>
          <path id="Path_488" data-name="Path 488" d="M905.269,235.168l-25.663-5.985,1.073-28.382-37.031,1.018-9.527-17.971.1-.2,33.929-66.576,37.6-5.995-.018.518-2.444,67.02,15.834-1.559,3.948,25.006-19.849-.247Zm-24.783-6.656,23.862,5.565-2.033-33.125,19.757.247-3.665-23.212L902.4,179.562l2.46-67.476-36.148,5.763L835.083,183.84l9.072,17.111,37.411-1.028Zm-.039-46.9H856.582v-.884l.048-.092,26.279-51.1.8.222c-.474,7.442-3.242,51.459-3.242,51.459Zm-22.921-.853h22.12c.257-4.09,2.416-38.423,3.087-49.019Z" transform="translate(-655.275 -110.9)"/>
        </g>
      </g>
    </g>
  </g>
</svg>
