<svg xmlns="http://www.w3.org/2000/svg" width="68.822" height="68.822" viewBox="0 0 68.822 68.822">
  <path id="add-user" d="M68.822,55.38a2.688,2.688,0,0,1-2.688,2.688H58.069v8.065a2.688,2.688,0,0,1-5.377,0V58.069H44.627a2.688,2.688,0,0,1,0-5.377h8.065V44.627a2.688,2.688,0,0,1,5.377,0v8.065h8.065A2.688,2.688,0,0,1,68.822,55.38ZM47.315,66.134a2.688,2.688,0,0,1-2.688,2.688H8.065A8.074,8.074,0,0,1,0,60.757V55.784a16.1,16.1,0,0,1,5.459-12.1c2.809-2.468,8.187-6.127,16.834-8.028a19.883,19.883,0,1,1,12.118,4.128c-14.773,0-22.687,5.552-25.4,7.939a10.72,10.72,0,0,0-3.631,8.057v4.973a2.692,2.692,0,0,0,2.688,2.688H44.627A2.688,2.688,0,0,1,47.315,66.134Zm-12.9-31.723A14.517,14.517,0,1,0,19.894,19.894,14.534,14.534,0,0,0,34.411,34.411Zm0,0" fill="#141b3d"/>
</svg>
