<svg id="add" xmlns="http://www.w3.org/2000/svg" width="69.645" height="69.645" viewBox="0 0 69.645 69.645">
  <g id="Group_218" data-name="Group 218">
    <g id="Group_217" data-name="Group 217">
      <path id="Path_59" data-name="Path 59" d="M34.822,0A34.822,34.822,0,1,0,69.645,34.822,34.86,34.86,0,0,0,34.822,0Zm0,64.25A29.428,29.428,0,1,1,64.25,34.822,29.462,29.462,0,0,1,34.822,64.25Z" fill="#141b3d"/>
    </g>
  </g>
  <g id="Group_220" data-name="Group 220" transform="translate(18.638 18.396)">
    <g id="Group_219" data-name="Group 219">
      <path id="Path_60" data-name="Path 60" d="M166.692,148.725H155.9V137.935a2.7,2.7,0,1,0-5.395,0v10.789H139.719a2.7,2.7,0,1,0,0,5.395h10.789v10.789a2.7,2.7,0,1,0,5.395,0V154.119h10.789a2.7,2.7,0,0,0,0-5.395Z" transform="translate(-137.022 -135.238)" fill="#141b3d"/>
    </g>
  </g>
</svg>
