<svg xmlns="http://www.w3.org/2000/svg" width="52.576" height="69.768" viewBox="0 0 52.576 69.768">
  <g id="bargains" transform="translate(0.5 0.5)">
    <path id="Path_55" data-name="Path 55" d="M92.3,181.731a2.865,2.865,0,1,0,0-5.731H90.865a2.865,2.865,0,1,0,0,5.731Zm0,0" transform="translate(-72.241 -144.482)" fill="#141b3d" stroke="#fff" stroke-width="1"/>
    <path id="Path_56" data-name="Path 56" d="M164.3,272h-1.433a2.865,2.865,0,0,0,0,5.731H164.3a2.865,2.865,0,0,0,0-5.731Zm0,0" transform="translate(-131.347 -223.29)" fill="#141b3d" stroke="#fff" stroke-width="1"/>
    <path id="Path_57" data-name="Path 57" d="M112.355,192.842a2.866,2.866,0,0,0-4.052,0L96.842,204.3a2.865,2.865,0,1,0,4.052,4.052l11.461-11.461A2.866,2.866,0,0,0,112.355,192.842Zm0,0" transform="translate(-78.811 -157.619)" fill="#141b3d" stroke="#fff" stroke-width="1"/>
    <path id="Path_58" data-name="Path 58" d="M34.384,0H17.192A8.6,8.6,0,0,0,8.6,8.6v8.6H2.865A2.866,2.866,0,0,0,0,20.057V54.441A14.343,14.343,0,0,0,14.327,68.768H37.249A14.343,14.343,0,0,0,51.576,54.441V20.057a2.866,2.866,0,0,0-2.865-2.865H42.98V8.6A8.6,8.6,0,0,0,34.384,0ZM14.327,8.6a2.868,2.868,0,0,1,2.865-2.865H34.384A2.868,2.868,0,0,1,37.249,8.6v8.6H14.327ZM45.845,54.441a8.6,8.6,0,0,1-8.6,8.6H14.327a8.6,8.6,0,0,1-8.6-8.6V22.923H45.845Zm0,0" fill="#141b3d" stroke="#fff" stroke-width="1"/>
  </g>
</svg>
