<svg xmlns="http://www.w3.org/2000/svg" width="19.057" height="19.036" viewBox="0 0 19.057 19.036">
  <path id="clip" d="M17.78,1.479a4.373,4.373,0,0,0-3.1-1.3h-.015A4.395,4.395,0,0,0,11.55,1.492a.877.877,0,0,0,0,1.232.863.863,0,0,0,1.22,0,2.652,2.652,0,0,1,3.791-.012,2.7,2.7,0,0,1-.035,3.813L6.351,16.7a2.714,2.714,0,0,1-3.838-3.838L3,12.378,6.909,8.465,9.327,6.046a1.225,1.225,0,0,1,1.653.219l.006.006a1.013,1.013,0,0,1,.33.7,1.045,1.045,0,0,1-.346.716L5.832,12.828a.863.863,0,1,0,1.22,1.22L12.19,8.909a2.764,2.764,0,0,0,.851-1.921,2.711,2.711,0,0,0-.835-1.936L12.2,5.045a2.909,2.909,0,0,0-4.092-.219L5.689,7.245,1.776,11.158l-.483.483A4.438,4.438,0,0,0,7.57,17.916L17.745,7.738A4.434,4.434,0,0,0,17.78,1.479Z" transform="translate(0.001 -0.176)" fill="#2d3e4d"/>
</svg>
