<svg xmlns="http://www.w3.org/2000/svg" width="16.595" height="15.053" viewBox="0 0 16.595 15.053">
  <path id="Path_374" data-name="Path 374" d="M17.411,10.968a4.623,4.623,0,0,0-5.9,5.9H2.771A.771.771,0,0,1,2,16.1V3.771A.771.771,0,0,1,2.771,3H16.64a.771.771,0,0,1,.771.771ZM9.752,9.691,4.811,5.5l-1,1.174L9.762,11.72,15.6,6.665,14.6,5.5,9.752,9.691Zm7.208,5.638L18.6,16.963l-1.09,1.09L15.87,16.418l-1.634,1.635-1.09-1.09,1.635-1.634-1.635-1.634,1.09-1.09,1.634,1.635L17.5,12.6l1.09,1.09-1.635,1.634Z" transform="translate(-2 -3)" fill="#2d3e4d"/>
</svg>
