<svg id="Group_317" data-name="Group 317" xmlns="http://www.w3.org/2000/svg" width="17.248" height="17.248" viewBox="0 0 17.248 17.248">
  <rect id="Rectangle_71" data-name="Rectangle 71" width="5.368" height="0.596" transform="translate(5.045 10.375)" fill="#fff"/>
  <rect id="Rectangle_72" data-name="Rectangle 72" width="5.368" height="0.596" transform="translate(5.045 9.052)" fill="#fff"/>
  <rect id="Rectangle_73" data-name="Rectangle 73" width="5.368" height="0.596" transform="translate(5.045 7.729)" fill="#fff"/>
  <rect id="Rectangle_74" data-name="Rectangle 74" width="5.368" height="0.596" transform="translate(5.045 11.775)" fill="#fff"/>
  <path id="Path_50" data-name="Path 50" d="M8.624,0a8.624,8.624,0,1,0,8.624,8.624A8.624,8.624,0,0,0,8.624,0Zm2.969,12.186v1.048a1.048,1.048,0,0,1-1.048,1.048H4.913a1.048,1.048,0,0,1-1.048-1.048V5.506A1.048,1.048,0,0,1,4.913,4.458h5.633a1.047,1.047,0,0,1,1.048,1.048s0,1.048,0,1.048v5.633Zm1.342-1.342v1.047a1.048,1.048,0,0,1-.746,1V5.506a1.646,1.646,0,0,0-1.644-1.644H5.252a1.048,1.048,0,0,1,1-.746h5.633a1.048,1.048,0,0,1,1.047,1.048V5.212h0Z" fill="#fff"/>
  <rect id="Rectangle_75" data-name="Rectangle 75" width="5.368" height="0.596" transform="translate(5.045 6.406)" fill="#fff"/>
</svg>
