<svg xmlns="http://www.w3.org/2000/svg" width="19.216" height="17.882" viewBox="0 0 19.216 17.882"><defs><style>.a{fill:#fff;stroke:#fff;}</style></defs><g transform="translate(18.716 17.382) rotate(180)"><path class="a" d="M17.694.077A.52.52,0,0,0,17.172.6V5.347a2.342,2.342,0,0,1-2.339,2.339H3.383A2.342,2.342,0,0,1,1.044,5.347V.522A.522.522,0,0,0,0,.522V5.347A3.386,3.386,0,0,0,3.383,8.729H14.833a3.386,3.386,0,0,0,3.383-3.383V.6A.522.522,0,0,0,17.694.077Z" transform="translate(0 8.153)"/><path class="a" d="M3.474,12.738a.525.525,0,0,0,.367.155.509.509,0,0,0,.367-.155L7.526,9.421a.522.522,0,0,0-.738-.738L4.364,11.111V.522a.522.522,0,1,0-1.044,0V11.111L.892,8.683a.522.522,0,0,0-.738.738Z" transform="translate(5.266)"/></g></svg>