<svg xmlns="http://www.w3.org/2000/svg" width="19.207" height="17.874" viewBox="0 0 19.207 17.874"><defs><style>.a{fill:#0fb7ff;stroke:#0fb7ff;}</style></defs><g transform="translate(0.5 0.5)"><path class="a" d="M17.685,228.227a.519.519,0,0,0-.522.522v4.745a2.341,2.341,0,0,1-2.338,2.338H3.381a2.341,2.341,0,0,1-2.338-2.338v-4.822a.522.522,0,0,0-1.043,0v4.822a3.385,3.385,0,0,0,3.381,3.381H14.826a3.385,3.385,0,0,0,3.381-3.381v-4.745A.522.522,0,0,0,17.685,228.227Z" transform="translate(0 -220.001)"/><path class="a" d="M139.7,29.981a.525.525,0,0,0,.367.155.509.509,0,0,0,.367-.155l3.315-3.315a.522.522,0,0,0-.738-.738l-2.423,2.427V17.772a.522.522,0,0,0-1.043,0V28.355l-2.427-2.427a.522.522,0,0,0-.738.738Z" transform="translate(-130.961 -17.25)"/></g></svg>