<svg xmlns="http://www.w3.org/2000/svg" width="20.858" height="17.23" viewBox="0 0 20.858 17.23">
  <g id="folder" transform="translate(-10.666 0)">
    <path id="Path_507" data-name="Path 507" d="M48.805,0H34.3A2.258,2.258,0,0,0,32.05,2.562a.453.453,0,0,0,.679.332,1.284,1.284,0,0,1,.659-.173H35.71A1.367,1.367,0,0,1,37,3.643l.077.248a2.278,2.278,0,0,0,2.152,1.55H49.712a1.36,1.36,0,0,1,.677.181.453.453,0,0,0,.683-.39V2.267A2.267,2.267,0,0,0,48.805,0Z" transform="translate(-20.455 0)" fill="#1976d2"/>
    <path id="Path_508" data-name="Path 508" d="M30.393,45.692a2.255,2.255,0,0,0-1.136-.307H18.773a1.367,1.367,0,0,1-1.29-.923l-.077-.248a2.278,2.278,0,0,0-2.152-1.55H12.933a2.176,2.176,0,0,0-1.111.293,2.3,2.3,0,0,0-1.156,1.974V55.814a2.267,2.267,0,0,0,2.267,2.267H29.256a2.267,2.267,0,0,0,2.267-2.267V47.653A2.253,2.253,0,0,0,30.393,45.692Z" transform="translate(0 -40.851)" fill="#2196f3"/>
  </g>
</svg>
