<svg xmlns="http://www.w3.org/2000/svg" width="13.595" height="13.595" viewBox="0 0 13.595 13.595">
  <path id="Path_14" data-name="Path 14" d="M81.8,75a6.8,6.8,0,1,0,6.8,6.8A6.805,6.805,0,0,0,81.8,75Zm5.643,6.234H85.492a10.247,10.247,0,0,0-.969-4.1q-.116-.229-.241-.435A5.684,5.684,0,0,1,87.441,81.234Zm-7.363,4.718a9.076,9.076,0,0,1-.847-3.591h2v4.954A3.1,3.1,0,0,1,80.078,85.953Zm1.156-9.672v4.954h-2a9.074,9.074,0,0,1,.847-3.591A3.1,3.1,0,0,1,81.234,76.281Zm1.127,11.034V82.361h2a9.074,9.074,0,0,1-.847,3.591A3.1,3.1,0,0,1,82.361,87.315Zm0-6.08V76.281a3.1,3.1,0,0,1,1.156,1.362,9.074,9.074,0,0,1,.847,3.591ZM79.313,76.7q-.125.206-.241.435a10.248,10.248,0,0,0-.969,4.1H76.154A5.684,5.684,0,0,1,79.313,76.7Zm-3.159,5.661H78.1a10.248,10.248,0,0,0,.969,4.1q.116.229.241.435A5.684,5.684,0,0,1,76.154,82.361Zm8.128,4.534q.125-.206.241-.435a10.25,10.25,0,0,0,.969-4.1h1.949A5.684,5.684,0,0,1,84.282,86.895Zm0,0" transform="translate(-75 -75)" fill="#141b3d"/>
</svg>
