<svg xmlns="http://www.w3.org/2000/svg" width="69.813" height="64.161" viewBox="0 0 69.813 64.161">
  <g id="imac" transform="translate(1 1)">
    <g id="Group_216" data-name="Group 216">
      <g id="Group_215" data-name="Group 215">
        <path id="Path_53" data-name="Path 53" d="M60.749,16H7.064A7.085,7.085,0,0,0,0,23.064V59.8a7.085,7.085,0,0,0,7.064,7.064h19.5L22.6,73.923a2.876,2.876,0,0,0,0,2.826,2.821,2.821,0,0,0,2.4,1.413h17.8a2.821,2.821,0,0,0,2.4-1.413,2.876,2.876,0,0,0,0-2.826l-3.956-7.064h19.5A7.085,7.085,0,0,0,67.813,59.8V23.064A7.085,7.085,0,0,0,60.749,16ZM42.807,75.336h-17.8l4.733-8.477H38ZM64.987,59.8a4.251,4.251,0,0,1-4.238,4.238H7.064A4.251,4.251,0,0,1,2.826,59.8V55.557H64.987Zm0-7.064H2.826V23.064a4.251,4.251,0,0,1,4.238-4.238H60.749a4.251,4.251,0,0,1,4.238,4.238Z" transform="translate(0 -16)" fill="#141b3d" stroke="#141b3d" stroke-width="2"/>
        <path id="Path_54" data-name="Path 54" d="M181.413,258.826h1.413a1.413,1.413,0,1,0,0-2.826h-1.413a1.413,1.413,0,1,0,0,2.826Z" transform="translate(-148.213 -213.617)" fill="#141b3d" stroke="#141b3d" stroke-width="2"/>
      </g>
    </g>
  </g>
</svg>
