<svg xmlns="http://www.w3.org/2000/svg" width="47.127" height="70.328" viewBox="0 0 47.127 70.328">
  <g id="medal" transform="translate(0.3 0.3)">
    <g id="Group_222" data-name="Group 222">
      <g id="Group_221" data-name="Group 221" transform="translate(0)">
        <path id="Path_61" data-name="Path 61" d="M108.346,0A23.263,23.263,0,1,0,131.61,23.263,23.29,23.29,0,0,0,108.346,0Zm0,41.95a18.687,18.687,0,1,1,18.687-18.687A18.709,18.709,0,0,1,108.346,41.95Z" transform="translate(-85.083)" fill="#141b3d" stroke="#141b3d" stroke-width="0.6"/>
      </g>
    </g>
    <g id="Group_224" data-name="Group 224" transform="translate(7.017 39.337)">
      <g id="Group_223" data-name="Group 223">
        <path id="Path_62" data-name="Path 62" d="M169.128,316.165l-1.144-27.153-4.572.192,1,23.668-9.453-8.144a3.008,3.008,0,0,0-4.146,0l-9.452,8.144,1-23.667-4.573-.192-1.144,27.153c0,.032,0,.064,0,.1a3.1,3.1,0,0,0,1.794,2.819,3.038,3.038,0,0,0,3.284-.476l11.168-9.622,11.171,9.626a3.076,3.076,0,0,0,2.005.754,3.041,3.041,0,0,0,1.276-.281,3.1,3.1,0,0,0,1.793-2.819C169.131,316.229,169.13,316.2,169.128,316.165Z" transform="translate(-136.639 -289.012)" fill="#141b3d" stroke="#141b3d" stroke-width="0.6"/>
      </g>
    </g>
    <g id="Group_226" data-name="Group 226" transform="translate(11.67 15.635)">
      <g id="Group_225" data-name="Group 225" transform="translate(0)">
        <path id="Path_63" data-name="Path 63" d="M192.576,115.543a2.287,2.287,0,0,0-3.235,0l-9.966,9.966-4.637-4.693a2.288,2.288,0,1,0-3.256,3.216l6.254,6.331a2.286,2.286,0,0,0,1.621.68h.007a2.287,2.287,0,0,0,1.618-.671l11.594-11.594A2.287,2.287,0,0,0,192.576,115.543Z" transform="translate(-170.821 -114.873)" fill="#141b3d" stroke="#141b3d" stroke-width="0.6"/>
      </g>
    </g>
  </g>
</svg>
