<svg id="padlock" xmlns="http://www.w3.org/2000/svg">
  <g data-name="Group 189" stroke-width=".8">
    <path data-name="Path 41" d="M11.894 7.615h-.244V5.458a5.058 5.058 0 10-10.116 0 .463.463 0 00.926 0 4.132 4.132 0 018.264 0v2.157h-9.43a.9.9 0 00-.9.9v5.764a2.685 2.685 0 002.682 2.682h7.026a2.685 2.685 0 002.682-2.682V8.51a.9.9 0 00-.89-.895zm-.031 6.659a1.757 1.757 0 01-1.756 1.756H3.085a1.757 1.757 0 01-1.756-1.756V8.541h10.535v5.734z"/>
    <path data-name="Path 42" d="M6.597 14.085a1.732 1.732 0 10-1.732-1.732 1.733 1.733 0 001.732 1.732zm0-2.541a.808.808 0 11-.806.809.807.807 0 01.806-.809z"/>
  </g>
</svg>