<svg xmlns="http://www.w3.org/2000/svg" width="14.518" height="19.131" viewBox="0 0 14.518 19.131"><defs><style>.a{fill:#9da9b4;stroke:#9da9b4;stroke-width:0.8px;}</style></defs><g transform="translate(0.4 0.4)"><path class="a" d="M73.477,7.989h-.27V5.6a5.6,5.6,0,1,0-11.2,0,.513.513,0,0,0,1.025,0,4.575,4.575,0,0,1,9.15,0V7.989H61.741a.992.992,0,0,0-.991.991v6.383a2.973,2.973,0,0,0,2.969,2.969H71.5a2.973,2.973,0,0,0,2.969-2.969V8.98A.992.992,0,0,0,73.477,7.989Zm-.034,7.373A1.945,1.945,0,0,1,71.5,17.306H63.723a1.945,1.945,0,0,1-1.944-1.944V9.014H73.443v6.348Z" transform="translate(-60.75)"/><path class="a" d="M192.867,301.935a1.917,1.917,0,1,0-1.917-1.917A1.919,1.919,0,0,0,192.867,301.935Zm0-2.813a.894.894,0,1,1-.892.9A.894.894,0,0,1,192.867,299.121Z" transform="translate(-186.007 -286.782)"/></g></svg>