<svg xmlns="http://www.w3.org/2000/svg" width="21.03" height="24.035" viewBox="0 0 21.03 24.035"><defs><style>.a{fill:#e2e5e7;}.b{fill:#b0b7bd;}.c{fill:#cad1d8;}.d{fill:#f15642;}.e{fill:#fff;}</style></defs><path class="a" d="M97.5,0A1.507,1.507,0,0,0,96,1.5v21.03a1.507,1.507,0,0,0,1.5,1.5h15.022a1.507,1.507,0,0,0,1.5-1.5V6.009L108.017,0Z" transform="translate(-92.996)"/><path class="b" d="M353.5,6.009h4.506L352,0V4.507A1.507,1.507,0,0,0,353.5,6.009Z" transform="translate(-336.978)"/><path class="c" d="M388.507,132.507,384,128h4.507Z" transform="translate(-367.476 -121.991)"/><path class="d" d="M50.026,248.262a.753.753,0,0,1-.751.751H32.751a.753.753,0,0,1-.751-.751v-7.511a.753.753,0,0,1,.751-.751H49.275a.753.753,0,0,1,.751.751Z" transform="translate(-32 -228.734)"/><g transform="translate(3.274 13.816)"><path class="e" d="M101.744,294.735a.413.413,0,0,1,.408-.415h1.387a1.5,1.5,0,0,1,0,3h-1v.793a.377.377,0,0,1-.385.414.4.4,0,0,1-.408-.414Zm.792.342v1.5h1a.749.749,0,0,0,0-1.5Z" transform="translate(-101.744 -294.32)"/><path class="e" d="M188.239,299.628a.376.376,0,0,1-.415-.372v-3.411a.409.409,0,0,1,.415-.373h1.375c2.744,0,2.684,4.156.054,4.156Zm.379-3.423v2.69h1c1.622,0,1.694-2.69,0-2.69Z" transform="translate(-183.783 -295.418)"/><path class="e" d="M287.922,296.238v.955h1.531a.464.464,0,0,1,.433.426.417.417,0,0,1-.433.361h-1.531v1.261a.356.356,0,0,1-.36.372.381.381,0,0,1-.426-.372v-3.411a.38.38,0,0,1,.426-.373h2.108a.375.375,0,0,1,.421.373.415.415,0,0,1-.421.409h-1.749Z" transform="translate(-278.433 -295.403)"/></g><path class="c" d="M110.271,416.751H96v.751h14.271a.753.753,0,0,0,.751-.751V416A.753.753,0,0,1,110.271,416.751Z" transform="translate(-92.996 -396.472)"/></svg>