<svg xmlns="http://www.w3.org/2000/svg" width="11.89" height="11.792" viewBox="0 0 11.89 11.792">
  <path id="Path_28" data-name="Path 28" d="M254.485,272.886a2.951,2.951,0,0,0-4.169,0l-5.4,5.383a.983.983,0,0,0-.246.41l-1.175,3.868a.983.983,0,0,0,1.2,1.233l3.967-1.1a.983.983,0,0,0,.432-.252l5.384-5.374A2.952,2.952,0,0,0,254.485,272.886Zm-6.59,7.97-2,.553.584-1.923,3.641-3.632,1.39,1.39Zm5.2-5.191-.19.19-1.39-1.39.19-.189a.983.983,0,0,1,1.39,1.389Z" transform="translate(-243.457 -272.024)" fill="#acacaf"/>
</svg>
