<svg xmlns="http://www.w3.org/2000/svg" width="13.917" height="13.784" viewBox="0 0 13.917 13.784"><defs><style>.a{fill:#141b3d;stroke:#141b3d;}</style></defs><g transform="translate(0.566 0.5)"><g transform="translate(0)"><path class="a" d="M12.6,9.136c-1.5-1.5-1.73-2.259-1.73-4.662a4.474,4.474,0,1,0-8.947,0,7.559,7.559,0,0,1-.213,2.373A5.482,5.482,0,0,1,.188,9.136.639.639,0,0,0,.64,10.228H4.187l-.032.32a2.237,2.237,0,1,0,4.474,0l-.032-.32h3.547A.639.639,0,0,0,12.6,9.136Zm-6.2,3.009a1.6,1.6,0,0,1-1.6-1.6l.032-.32H7.958l.033.32A1.6,1.6,0,0,1,6.393,12.145ZM.641,9.588c1.917-1.918,1.917-3.2,1.917-5.114a3.835,3.835,0,1,1,7.669,0c0,1.918,0,3.2,1.917,5.114Z" transform="translate(0)"/></g></g></svg>