<svg xmlns="http://www.w3.org/2000/svg" width="12.155" height="10.853" viewBox="0 0 12.155 10.853"><defs><style>.a{fill:#141b3d;}</style></defs><g transform="translate(0 0)"><path class="a" d="M12.026,31.01,8.553,27.537a.434.434,0,0,0-.739.305v1.736H6.295q-4.836,0-5.935,2.734A6.177,6.177,0,0,0,0,34.571,8.145,8.145,0,0,0,.861,37.63l.071.163q.051.115.092.2a.771.771,0,0,0,.088.149.232.232,0,0,0,.19.115.2.2,0,0,0,.159-.068.253.253,0,0,0,.058-.169,1.381,1.381,0,0,0-.017-.18,1.4,1.4,0,0,1-.017-.159q-.034-.461-.034-.834a5.774,5.774,0,0,1,.119-1.228,3.686,3.686,0,0,1,.329-.939A2.36,2.36,0,0,1,2.442,34a3.184,3.184,0,0,1,.716-.471,3.88,3.88,0,0,1,.9-.288A8.6,8.6,0,0,1,5.1,33.092q.526-.041,1.19-.041H7.814v1.736a.432.432,0,0,0,.739.305l3.473-3.473a.426.426,0,0,0,0-.611Z" transform="translate(0 -27.408)"/></g></svg>