<svg xmlns="http://www.w3.org/2000/svg" width="19.934" height="19.134" viewBox="0 0 19.934 19.134">
  <path id="star-2" d="M9.815,1.584l2.019,4.089a.964.964,0,0,0,.726.527l4.515.656A.963.963,0,0,1,17.609,8.5l-3.267,3.183a.963.963,0,0,0-.277.853l.771,4.494a.964.964,0,0,1-1.4,1.016L9.4,15.923a.966.966,0,0,0-.9,0L4.464,18.045a.964.964,0,0,1-1.4-1.016l.771-4.494a.963.963,0,0,0-.277-.853L.293,8.5A.963.963,0,0,1,.827,6.856L5.342,6.2a.964.964,0,0,0,.726-.527L8.087,1.584A.964.964,0,0,1,9.815,1.584Z" transform="translate(1.016 -0.047)" fill="none" stroke="#141b3d" stroke-width="2"/>
</svg>
