<svg xmlns="http://www.w3.org/2000/svg" width="15.96" height="9.31" viewBox="0 0 15.96 9.31"><defs><style>.a{fill:#141b3d;}</style></defs><path class="a" d="M300.663,9.31h-1.33a.665.665,0,0,1,0-1.33h1.33a3.325,3.325,0,0,0,0-6.65h-1.33a.665.665,0,0,1,0-1.33h1.33a4.655,4.655,0,0,1,0,9.31Zm0,0" transform="translate(-289.358)"/><path class="a" d="M5.985,9.31H4.655a4.655,4.655,0,0,1,0-9.31h1.33a.665.665,0,0,1,0,1.33H4.655a3.325,3.325,0,0,0,0,6.65h1.33a.665.665,0,0,1,0,1.33Zm0,0"/><path class="a" d="M175.323,129.33h-3.99a.665.665,0,0,1,0-1.33h3.99a.665.665,0,0,1,0,1.33Zm0,0" transform="translate(-165.348 -124.01)"/></svg>