<svg id="users" xmlns="http://www.w3.org/2000/svg"><g data-name="Group 754"><path data-name="Path 384" d="M.15 14.636a5.519 5.519 0 1111.037 0h-1.38a4.139 4.139 0 10-8.278 0zm5.519-6.208a4.139 4.139 0 114.139-4.139 4.138 4.138 0 01-4.139 4.139zm0-1.38a2.759 2.759 0 10-2.76-2.759 2.759 2.759 0 002.76 2.761zm5.715 2.554a5.52 5.52 0 013.253 5.034h-1.38a4.14 4.14 0 00-2.441-3.776l.566-1.258zm-.475-7.788a3.8 3.8 0 01-1.1 7.288V7.714a2.414 2.414 0 00.717-4.564z"  stroke="#9da9b4" stroke-width=".3"/></g></svg>