<svg xmlns="http://www.w3.org/2000/svg" width="14.786" height="14.786" viewBox="0 0 14.786 14.786">
  <g id="Group_754" data-name="Group 754" transform="translate(-1.23 -0.54)">
    <path id="Path_384" data-name="Path 384" d="M2,15.486a5.519,5.519,0,1,1,11.037,0h-1.38a4.139,4.139,0,1,0-8.278,0ZM7.519,9.278a4.139,4.139,0,1,1,4.139-4.139A4.138,4.138,0,0,1,7.519,9.278Zm0-1.38A2.759,2.759,0,1,0,4.759,5.139,2.759,2.759,0,0,0,7.519,7.9Zm5.715,2.554a5.52,5.52,0,0,1,3.253,5.034h-1.38a4.14,4.14,0,0,0-2.441-3.776l.566-1.258Zm-.475-7.788a3.8,3.8,0,0,1-1.1,7.288V8.564A2.414,2.414,0,0,0,12.376,4Z" transform="translate(-0.62 -0.31)" fill="#9da9b4" stroke="#9da9b4" stroke-width="0.3"/>
  </g>
</svg>
