<svg id="writing" xmlns="http://www.w3.org/2000/svg" width="61.679" height="68.822" viewBox="0 0 61.679 68.822">
  <g id="Group_210" data-name="Group 210">
    <g id="Group_209" data-name="Group 209" transform="translate(0)">
      <path id="Path_48" data-name="Path 48" d="M139.526,202.688A2.688,2.688,0,0,0,136.838,200h-27.69a2.688,2.688,0,1,0,0,5.377h27.69A2.688,2.688,0,0,0,139.526,202.688Z" transform="translate(-95.72 -173.116)" fill="#141b3d"/>
      <path id="Path_49" data-name="Path 49" d="M109.147,280a2.688,2.688,0,1,0,0,5.377h16.817a2.688,2.688,0,1,0,0-5.377Z" transform="translate(-95.72 -242.363)" fill="#141b3d"/>
      <path id="Path_50" data-name="Path 50" d="M46.315,63.446H37.323a5.383,5.383,0,0,1-5.377-5.377V10.753a5.383,5.383,0,0,1,5.377-5.377H70.376a5.383,5.383,0,0,1,5.377,5.377V27.287a2.688,2.688,0,1,0,5.377,0V10.753A10.766,10.766,0,0,0,70.376,0H37.323A10.766,10.766,0,0,0,26.57,10.753V58.069A10.766,10.766,0,0,0,37.323,68.822h8.991a2.688,2.688,0,0,0,0-5.377Z" transform="translate(-26.57)" fill="#141b3d"/>
      <path id="Path_51" data-name="Path 51" d="M273.624,274.383a8.073,8.073,0,0,0-11.4,0l-14.76,14.727a2.689,2.689,0,0,0-.673,1.122l-3.214,10.582a2.688,2.688,0,0,0,3.29,3.372l10.851-3.006a2.687,2.687,0,0,0,1.182-.688l14.729-14.7A8.074,8.074,0,0,0,273.624,274.383Zm-18.027,21.8-5.459,1.512,1.6-5.26L261.7,282.5l3.8,3.8Zm14.227-14.2-.521.52-3.8-3.8.519-.518a2.688,2.688,0,0,1,3.8,3.8Z" transform="translate(-214.303 -235.459)" fill="#141b3d"/>
      <path id="Path_52" data-name="Path 52" d="M136.838,120h-27.69a2.688,2.688,0,0,0,0,5.377h27.69a2.688,2.688,0,0,0,0-5.377Z" transform="translate(-95.72 -103.87)" fill="#141b3d"/>
    </g>
  </g>
</svg>
